<svg id="Camada_1" data-name="Camada 1" xmlns="http://www.w3.org/2000/svg" viewBox="0 0 1310 582"><defs><style>.cls-1,.cls-4{fill:#5f66af;}.cls-2,.cls-3{fill:#70c1cc;}.cls-2{fill-rule:evenodd;}.cls-4{font-size:174.84px;font-family:Montserrat-Regular, Montserrat;}</style></defs><title>Prancheta 35</title><path class="cls-1" d="M269.47,350a14,14,0,0,1,28,0V467.19a14,14,0,0,1-28,0Z"/><path class="cls-1" d="M348.47,446.69A22.22,22.22,0,1,0,342,431a22.16,22.16,0,0,0,6.5,15.71m15.71,34.49a50.21,50.21,0,1,1,35.49-14.7A50,50,0,0,1,364.18,481.18Z"/><path class="cls-1" d="M481.75,232.86h0c0,.12,0,.24,0,.36a14,14,0,0,1-28-.36h0a103.17,103.17,0,0,0-206.33,0v0a14,14,0,0,1-14,14,103.17,103.17,0,1,0,0,206.33,14,14,0,1,1,0,28A131.16,131.16,0,0,1,220.1,219.54a131.2,131.2,0,0,1,251-38.57,86.4,86.4,0,0,1,155.49,51.9,14,14,0,1,1-28,0,58.42,58.42,0,1,0-116.83,0"/><path class="cls-1" d="M598.72,453.18V408.79a22.21,22.21,0,0,0,0,44.39m0-103.15a14,14,0,0,1,28,0V467.19a14,14,0,0,1-14,14c-19.29,0-33.54.41-48.65-14.7a50.2,50.2,0,0,1,34.66-85.69Z"/><path class="cls-1" d="M503.91,406.74a14,14,0,1,1,28,0c0,22.18,2.93,42.11-14.7,59.74a50.2,50.2,0,0,1-71,0c-17.76-17.76-14.7-38.26-14.7-60.51a14,14,0,0,1,28,0V431a22.21,22.21,0,0,0,44.42,0Z"/><path class="cls-2" d="M801.28,280.42a11.85,11.85,0,1,1-15,7.5,11.85,11.85,0,0,1,15-7.5"/><path class="cls-2" d="M846.6,213.25a20.73,20.73,0,1,1-26.22,13.12,20.73,20.73,0,0,1,26.22-13.12"/><path class="cls-2" d="M805.65,136a25.67,25.67,0,1,1-32.47,16.25A25.67,25.67,0,0,1,805.65,136"/><path class="cls-3" d="M643.54,350a14,14,0,0,1,28,0V467.19a14,14,0,0,1-28,0Z"/><path class="cls-2" d="M766.13,465V394.78a14,14,0,0,0-14-14c-9.21,0-18.62-.57-27.52,2.09-45.13,11.92-48.81,83.33,0,96.23,8.9,2.65,18.31,2.08,27.52,2.08a14,14,0,0,0,14-14Zm-28-56.25v44.39a22.21,22.21,0,0,1,0-44.39Z"/><path class="cls-3" d="M811.43,453.18V408.79a22.21,22.21,0,0,1,0,44.39m0-103.15a14,14,0,1,0-28,0V467.19a14,14,0,0,0,14,14c19.3,0,33.54.41,48.65-14.7a50.2,50.2,0,0,0-34.66-85.69Z"/><text class="cls-4" transform="translate(860.35 477.91)">_BR</text></svg>